<svg width="16" height="16" viewBox="0 0 16 16" fill="none" xmlns="http://www.w3.org/2000/svg">
<g clip-path="url(#clip0_3_964)">
<path fill-rule="evenodd" clip-rule="evenodd" d="M11.7572 12.4269C12.8135 11.3706 13.3438 9.98909 13.3486 8.60368C13.35 8.18947 13.6869 7.85483 14.1011 7.85625C14.5153 7.85767 14.85 8.19461 14.8485 8.60882C14.8425 10.3741 14.1654 12.14 12.8178 13.4876C10.1102 16.1953 5.72016 16.1953 3.01249 13.4876C0.304819 10.7799 0.304818 6.38992 3.01249 3.68225C3.58456 3.11018 4.23304 2.6581 4.92577 2.32718C5.86467 1.87866 6.8826 1.65372 7.90001 1.65151C8.31422 1.65061 8.65074 1.98567 8.65164 2.39988C8.65254 2.81409 8.31748 3.15061 7.90327 3.15151C7.10433 3.15324 6.3066 3.32992 5.57235 3.68067C5.03112 3.93922 4.52315 4.29291 4.07315 4.74291C1.95127 6.86479 1.95127 10.305 4.07315 12.4269C6.19503 14.5488 9.63529 14.5488 11.7572 12.4269Z" fill="#333236"/>
<path d="M8 0.5L11 2.5L8 4.5L8 0.5Z" fill="#333236"/>
<path fill-rule="evenodd" clip-rule="evenodd" d="M11.5 2.5C11.5 2.66718 11.4164 2.82329 11.2773 2.91603L8.27735 4.91603C8.12392 5.01831 7.92665 5.02785 7.76407 4.94084C7.60149 4.85383 7.5 4.6844 7.5 4.5L7.5 0.500001C7.5 0.315603 7.60149 0.146173 7.76407 0.0591633C7.92665 -0.0278462 8.12392 -0.0183099 8.27735 0.0839755L11.2774 2.08398C11.4164 2.17671 11.5 2.33282 11.5 2.5ZM8.5 1.43426L8.5 3.56574L10.0986 2.5L8.5 1.43426Z" fill="#333236"/>
</g>
<defs>
<clipPath id="clip0_3_964">
<rect width="16" height="16" fill="white"/>
</clipPath>
</defs>
</svg>
